<svg width="23" height="22" viewBox="0 0 23 22" fill="none" xmlns="http://www.w3.org/2000/svg">
<g clip-path="url(#clip0_0_3029)">
<path d="M22.5 4.12493V17.8749C22.5 18.6552 21.9053 19.2499 21.125 19.2499H19.75V6.77112L11.5 12.6974L3.25 6.77112V19.2499H1.875C1.09469 19.2499 0.5 18.6552 0.5 17.8749V4.12493C0.5 3.73443 0.647125 3.39068 0.893937 3.1473C1.02248 3.01869 1.17557 2.91724 1.34411 2.84897C1.51264 2.78071 1.69319 2.74703 1.875 2.74993H2.33356L11.5 9.39599L20.6664 2.74993H21.125C21.5155 2.74993 21.8592 2.89705 22.1061 3.1473C22.3529 3.39068 22.5 3.73443 22.5 4.12493Z" fill="#686868"/>
</g>
<defs>
<clipPath id="clip0_0_3029">
<rect width="22" height="22" fill="white" transform="translate(0.5)"/>
</clipPath>
</defs>
</svg>
