<svg width="15" height="15" viewBox="0 0 15 15" fill="none" xmlns="http://www.w3.org/2000/svg">
<path d="M3 3C3 2.60218 3.15804 2.22064 3.43934 1.93934C3.72064 1.65804 4.10218 1.5 4.5 1.5H7.9395C8.23777 1.50026 8.52372 1.61896 8.7345 1.83L11.6707 4.7655C11.8815 4.9764 11.9999 5.26234 12 5.5605V12C12 12.3978 11.842 12.7794 11.5607 13.0607C11.2794 13.342 10.8978 13.5 10.5 13.5H6.375C6.53925 13.2825 6.65625 13.0275 6.7125 12.75H10.5C10.6989 12.75 10.8897 12.671 11.0303 12.5303C11.171 12.3897 11.25 12.1989 11.25 12V6H8.625C8.32663 6 8.04048 5.88147 7.8295 5.6705C7.61853 5.45952 7.5 5.17337 7.5 4.875V2.25H4.5C4.30109 2.25 4.11032 2.32902 3.96967 2.46967C3.82902 2.61032 3.75 2.80109 3.75 3V8.625C3.68925 8.67075 3.63 8.72025 3.576 8.7735C3.44089 8.56008 3.23806 8.39819 3 8.31375V3ZM8.625 5.25H11.0948L8.25 2.40525V4.875C8.25 4.97446 8.28951 5.06984 8.35983 5.14016C8.43016 5.21049 8.52554 5.25 8.625 5.25ZM2.625 9C2.52554 9 2.43016 9.03951 2.35984 9.10983C2.28951 9.18016 2.25 9.27554 2.25 9.375V12.375C2.25 12.4745 2.21049 12.5698 2.14016 12.6402C2.06984 12.7105 1.97446 12.75 1.875 12.75C1.77554 12.75 1.68016 12.7105 1.60984 12.6402C1.53951 12.5698 1.5 12.4745 1.5 12.375V12C1.5 11.9005 1.46049 11.8052 1.39017 11.7348C1.31984 11.6645 1.22446 11.625 1.125 11.625C1.02554 11.625 0.930161 11.6645 0.859835 11.7348C0.789509 11.8052 0.75 11.9005 0.75 12V12.375C0.75 12.6734 0.868526 12.9595 1.0795 13.1705C1.29048 13.3815 1.57663 13.5 1.875 13.5C2.17337 13.5 2.45952 13.3815 2.6705 13.1705C2.88147 12.9595 3 12.6734 3 12.375V9.375C3 9.27554 2.96049 9.18016 2.89016 9.10983C2.81984 9.03951 2.72446 9 2.625 9ZM3.75 10.125C3.75 9.82663 3.86853 9.54048 4.0795 9.3295C4.29048 9.11853 4.57663 9 4.875 9C5.17337 9 5.45952 9.11853 5.6705 9.3295C5.88147 9.54048 6 9.82663 6 10.125C6 10.2245 5.96049 10.3198 5.89016 10.3902C5.81984 10.4605 5.72446 10.5 5.625 10.5C5.52554 10.5 5.43016 10.4605 5.35984 10.3902C5.28951 10.3198 5.25 10.2245 5.25 10.125C5.25 10.0255 5.21049 9.93016 5.14016 9.85983C5.06984 9.78951 4.97446 9.75 4.875 9.75C4.77554 9.75 4.68016 9.78951 4.60984 9.85983C4.53951 9.93016 4.5 10.0255 4.5 10.125V10.4115C4.5 10.4811 4.51937 10.5493 4.55592 10.6085C4.59248 10.6677 4.64479 10.7156 4.707 10.7467L5.37825 11.082C5.56514 11.1755 5.72229 11.3191 5.83211 11.4969C5.94193 11.6747 6.00006 11.8795 6 12.0885V12.375C6 12.6734 5.88147 12.9595 5.6705 13.1705C5.45952 13.3815 5.17337 13.5 4.875 13.5C4.57663 13.5 4.29048 13.3815 4.0795 13.1705C3.86853 12.9595 3.75 12.6734 3.75 12.375C3.75 12.2755 3.78951 12.1802 3.85984 12.1098C3.93016 12.0395 4.02554 12 4.125 12C4.22446 12 4.31984 12.0395 4.39016 12.1098C4.46049 12.1802 4.5 12.2755 4.5 12.375C4.5 12.4745 4.53951 12.5698 4.60984 12.6402C4.68016 12.7105 4.77554 12.75 4.875 12.75C4.97446 12.75 5.06984 12.7105 5.14016 12.6402C5.21049 12.5698 5.25 12.4745 5.25 12.375V12.0885C5.25 12.0189 5.23063 11.9507 5.19408 11.8915C5.15752 11.8323 5.10521 11.7844 5.043 11.7533L4.37175 11.418C4.18487 11.3245 4.02771 11.1809 3.91789 11.0031C3.80807 10.8253 3.74994 10.6205 3.75 10.4115V10.125Z" fill="#686868"/>
</svg>
