<svg width="18" height="18" viewBox="0 0 18 18" fill="none" xmlns="http://www.w3.org/2000/svg">
<path d="M3.375 12.6562C3.375 13.4297 3.87984 14.0625 4.5 14.0625C4.63574 14.0595 4.76943 14.0288 4.89297 13.9725C5.0165 13.9162 5.12729 13.8353 5.21859 13.7348C5.26894 13.6787 5.33007 13.6332 5.39834 13.6012C5.46661 13.5691 5.54063 13.5512 5.61599 13.5483C5.69135 13.5454 5.76652 13.5577 5.83703 13.5845C5.90754 13.6113 5.97194 13.652 6.02641 13.7041C6.08088 13.7563 6.12431 13.8189 6.1541 13.8881C6.1839 13.9574 6.19947 14.032 6.19987 14.1074C6.20027 14.1828 6.1855 14.2575 6.15644 14.3271C6.12738 14.3967 6.08462 14.4598 6.0307 14.5125C5.83508 14.7234 5.59837 14.8922 5.33513 15.0082C5.07189 15.1243 4.78769 15.1853 4.5 15.1875C3.25898 15.1875 2.25 14.052 2.25 12.6562C2.25 11.2605 3.25898 10.125 4.5 10.125C4.78769 10.1272 5.07189 10.1882 5.33513 10.3043C5.59837 10.4203 5.83508 10.5891 6.0307 10.8C6.08462 10.8527 6.12738 10.9158 6.15644 10.9854C6.1855 11.055 6.20027 11.1297 6.19987 11.2051C6.19947 11.2805 6.1839 11.3551 6.1541 11.4244C6.12431 11.4936 6.08088 11.5562 6.02641 11.6084C5.97194 11.6605 5.90754 11.7012 5.83703 11.728C5.76652 11.7548 5.69135 11.7671 5.61599 11.7642C5.54063 11.7613 5.46661 11.7434 5.39834 11.7113C5.33007 11.6793 5.26894 11.6338 5.21859 11.5777C5.12729 11.4772 5.0165 11.3963 4.89297 11.34C4.76943 11.2837 4.63574 11.253 4.5 11.25C3.87984 11.25 3.375 11.8828 3.375 12.6562ZM8.97187 12.0452C8.69062 11.9637 8.39953 11.88 8.23711 11.7752C8.14852 11.7183 8.15062 11.7049 8.15836 11.6416C8.15941 11.5905 8.17274 11.5404 8.19721 11.4955C8.22168 11.4506 8.25659 11.4122 8.29898 11.3836C8.62242 11.1642 9.37758 11.262 9.69328 11.3442C9.83762 11.3822 9.99112 11.3612 10.12 11.286C10.2489 11.2108 10.3426 11.0874 10.3806 10.9431C10.4185 10.7987 10.3976 10.6453 10.3224 10.5164C10.2471 10.3875 10.1238 10.2937 9.97945 10.2558C9.83039 10.2171 8.50289 9.88875 7.67109 10.4498C7.49495 10.5679 7.34694 10.7233 7.23757 10.9049C7.12821 11.0866 7.06017 11.2901 7.03828 11.501C6.89766 12.6176 7.99734 12.9361 8.65547 13.1259C9.50414 13.3713 9.57867 13.4719 9.55406 13.6596C9.53227 13.8291 9.46547 13.8945 9.40359 13.9359C9.08016 14.1511 8.33695 14.0456 8.02898 13.9613C7.88599 13.9233 7.73381 13.9432 7.60541 14.0167C7.477 14.0902 7.3827 14.2113 7.34294 14.3538C7.30318 14.4963 7.32115 14.6487 7.39297 14.778C7.46479 14.9073 7.58467 15.0032 7.72664 15.0448C8.07514 15.1361 8.43372 15.1834 8.79398 15.1854C9.20391 15.1854 9.65883 15.1151 10.0237 14.8718C10.2039 14.7521 10.3552 14.594 10.467 14.4088C10.5787 14.2237 10.648 14.0161 10.6699 13.8009C10.8281 12.5859 9.66656 12.2463 8.97187 12.0452ZM13.4719 12.0452C13.1906 11.9637 12.8995 11.88 12.7371 11.7752C12.6492 11.7183 12.6506 11.7049 12.6584 11.6416C12.6594 11.5905 12.6727 11.5404 12.6972 11.4955C12.7217 11.4506 12.7566 11.4122 12.799 11.3836C13.1224 11.1642 13.8776 11.262 14.1926 11.3442C14.3369 11.3822 14.4904 11.3612 14.6193 11.286C14.7482 11.2108 14.8419 11.0874 14.8799 10.9431C14.9178 10.7987 14.8969 10.6453 14.8217 10.5164C14.7464 10.3875 14.6231 10.2937 14.4788 10.2558C14.3304 10.2171 13.0022 9.88875 12.1704 10.4498C11.995 10.5684 11.8477 10.7239 11.739 10.9055C11.6303 11.0872 11.5627 11.2904 11.5411 11.501C11.4005 12.6176 12.5009 12.9361 13.1583 13.1259C14.0063 13.3713 14.0808 13.4719 14.0569 13.6596C14.0351 13.8291 13.9683 13.8945 13.9057 13.9359C13.5823 14.1511 12.8398 14.0456 12.5318 13.9613C12.3878 13.9212 12.2338 13.9399 12.1037 14.0133C11.9735 14.0868 11.8779 14.2089 11.8378 14.3529C11.7977 14.4969 11.8165 14.6508 11.8899 14.781C11.9634 14.9111 12.0855 15.0068 12.2295 15.0469C12.5782 15.1382 12.937 15.1854 13.2975 15.1875C13.7067 15.1875 14.1623 15.1172 14.5273 14.8739C14.7073 14.7542 14.8585 14.5961 14.9701 14.4109C15.0818 14.2257 15.1509 14.0181 15.1727 13.803C15.3281 12.5859 14.1666 12.2463 13.4712 12.0452H13.4719ZM2.8125 7.875V2.8125C2.8125 2.51413 2.93103 2.22798 3.142 2.017C3.35298 1.80603 3.63913 1.6875 3.9375 1.6875H10.6875C10.7614 1.68744 10.8346 1.70194 10.9029 1.73017C10.9711 1.7584 11.0332 1.79981 11.0855 1.85203L15.023 5.78953C15.0752 5.84181 15.1166 5.90386 15.1448 5.97215C15.1731 6.04043 15.1876 6.11361 15.1875 6.1875V7.875C15.1875 8.02418 15.1282 8.16726 15.0227 8.27275C14.9173 8.37824 14.7742 8.4375 14.625 8.4375C14.4758 8.4375 14.3327 8.37824 14.2273 8.27275C14.1218 8.16726 14.0625 8.02418 14.0625 7.875V6.75H10.6875C10.5383 6.75 10.3952 6.69074 10.2898 6.58525C10.1843 6.47976 10.125 6.33668 10.125 6.1875V2.8125H3.9375V7.875C3.9375 8.02418 3.87824 8.16726 3.77275 8.27275C3.66726 8.37824 3.52418 8.4375 3.375 8.4375C3.22582 8.4375 3.08274 8.37824 2.97725 8.27275C2.87176 8.16726 2.8125 8.02418 2.8125 7.875ZM11.25 5.625H13.2666L11.25 3.60773V5.625Z" fill="#686868"/>
</svg>
