<svg width="18" height="18" viewBox="0 0 18 18" fill="none" xmlns="http://www.w3.org/2000/svg">
<path d="M8.85938 10.6875C8.85938 10.7994 8.81493 10.9067 8.73581 10.9858C8.65669 11.0649 8.54939 11.1094 8.4375 11.1094H7.73438V14.625C7.73438 14.7369 7.68993 14.8442 7.61081 14.9233C7.53169 15.0024 7.42439 15.0469 7.3125 15.0469C7.20061 15.0469 7.09331 15.0024 7.01419 14.9233C6.93507 14.8442 6.89062 14.7369 6.89062 14.625V11.1094H6.1875C6.07561 11.1094 5.96831 11.0649 5.88919 10.9858C5.81007 10.9067 5.76562 10.7994 5.76562 10.6875C5.76562 10.5756 5.81007 10.4683 5.88919 10.3892C5.96831 10.3101 6.07561 10.2656 6.1875 10.2656H8.4375C8.54939 10.2656 8.65669 10.3101 8.73581 10.3892C8.81493 10.4683 8.85938 10.5756 8.85938 10.6875ZM4.5 10.2656C4.38811 10.2656 4.28081 10.3101 4.20169 10.3892C4.12257 10.4683 4.07812 10.5756 4.07812 10.6875V12.2344H2.67188V10.6875C2.67188 10.5756 2.62743 10.4683 2.54831 10.3892C2.46919 10.3101 2.36189 10.2656 2.25 10.2656C2.13811 10.2656 2.03081 10.3101 1.95169 10.3892C1.87257 10.4683 1.82812 10.5756 1.82812 10.6875V14.625C1.82812 14.7369 1.87257 14.8442 1.95169 14.9233C2.03081 15.0024 2.13811 15.0469 2.25 15.0469C2.36189 15.0469 2.46919 15.0024 2.54831 14.9233C2.62743 14.8442 2.67188 14.7369 2.67188 14.625V13.0781H4.07812V14.625C4.07812 14.7369 4.12257 14.8442 4.20169 14.9233C4.28081 15.0024 4.38811 15.0469 4.5 15.0469C4.61189 15.0469 4.71919 15.0024 4.79831 14.9233C4.87743 14.8442 4.92188 14.7369 4.92188 14.625V10.6875C4.92188 10.5756 4.87743 10.4683 4.79831 10.3892C4.71919 10.3101 4.61189 10.2656 4.5 10.2656ZM16.875 14.2031H15.8906V10.6875C15.8906 10.5756 15.8462 10.4683 15.7671 10.3892C15.6879 10.3101 15.5806 10.2656 15.4688 10.2656C15.3569 10.2656 15.2496 10.3101 15.1704 10.3892C15.0913 10.4683 15.0469 10.5756 15.0469 10.6875V14.625C15.0469 14.7369 15.0913 14.8442 15.1704 14.9233C15.2496 15.0024 15.3569 15.0469 15.4688 15.0469H16.875C16.9869 15.0469 17.0942 15.0024 17.1733 14.9233C17.2524 14.8442 17.2969 14.7369 17.2969 14.625C17.2969 14.5131 17.2524 14.4058 17.1733 14.3267C17.0942 14.2476 16.9869 14.2031 16.875 14.2031ZM13.6125 10.2811C13.5236 10.2564 13.429 10.2615 13.3433 10.2956C13.2576 10.3298 13.1854 10.3911 13.1379 10.4702L11.8125 12.6802L10.4871 10.4702C10.4397 10.3909 10.3676 10.3294 10.2818 10.295C10.196 10.2607 10.1014 10.2555 10.0123 10.2801C9.9233 10.3048 9.84482 10.358 9.78897 10.4316C9.73311 10.5052 9.70295 10.5951 9.70312 10.6875V14.625C9.70312 14.7369 9.74757 14.8442 9.82669 14.9233C9.90581 15.0024 10.0131 15.0469 10.125 15.0469C10.2369 15.0469 10.3442 15.0024 10.4233 14.9233C10.5024 14.8442 10.5469 14.7369 10.5469 14.625V12.2105L11.4504 13.7173C11.4878 13.7799 11.5409 13.8317 11.6043 13.8678C11.6678 13.9038 11.7395 13.9227 11.8125 13.9227C11.8855 13.9227 11.9572 13.9038 12.0207 13.8678C12.0841 13.8317 12.1372 13.7799 12.1746 13.7173L13.0781 12.2105V14.625C13.0781 14.7369 13.1226 14.8442 13.2017 14.9233C13.2808 15.0024 13.3881 15.0469 13.5 15.0469C13.6119 15.0469 13.7192 15.0024 13.7983 14.9233C13.8774 14.8442 13.9219 14.7369 13.9219 14.625V10.6875C13.9218 10.5953 13.8916 10.5056 13.8357 10.4322C13.7798 10.3588 13.7014 10.3057 13.6125 10.2811ZM15.0469 7.875C15.0469 7.98689 15.0024 8.09419 14.9233 8.17331C14.8442 8.25243 14.7369 8.29688 14.625 8.29688C14.5131 8.29688 14.4058 8.25243 14.3267 8.17331C14.2476 8.09419 14.2031 7.98689 14.2031 7.875V6.60938H10.6875C10.5756 6.60938 10.4683 6.56493 10.3892 6.48581C10.3101 6.40669 10.2656 6.29939 10.2656 6.1875V2.67188H3.9375C3.9002 2.67188 3.86444 2.68669 3.83806 2.71306C3.81169 2.73944 3.79688 2.7752 3.79688 2.8125V7.875C3.79688 7.98689 3.75243 8.09419 3.67331 8.17331C3.59419 8.25243 3.48689 8.29688 3.375 8.29688C3.26311 8.29688 3.15581 8.25243 3.07669 8.17331C2.99757 8.09419 2.95312 7.98689 2.95312 7.875V2.8125C2.95312 2.55143 3.05684 2.30105 3.24144 2.11644C3.42605 1.93184 3.67643 1.82813 3.9375 1.82813H10.6875C10.743 1.82808 10.798 1.83899 10.8492 1.86023C10.9005 1.88146 10.9471 1.91261 10.9863 1.95188L14.9238 5.88938C15.0027 5.96853 15.047 6.07575 15.0469 6.1875V7.875ZM13.6069 5.76562L11.1094 3.26813V5.76562H13.6069Z" fill="#686868"/>
</svg>
